<svg xmlns="http://www.w3.org/2000/svg" xmlns:xlink="http://www.w3.org/1999/xlink" width="314" height="90" viewBox="0 0 314 90"><defs><path id="a" d="M567.924 320.11l.412-.743.171-.309a1.095 1.095 0 0 0-.96-1.623h-26.628c-.835 0-1.36.891-.96 1.612l1.909 3.532 4.79 8.678 4.654 8.415c1.303 2.355 4.687 2.344 5.98-.023l7.945-14.6z"/><path id="b" d="M641.29 323.208c-.4-5.762-3.578-5.693-3.578-5.693s-2.115.011-5.545-.046c-1.018-.023-3.43.034-4.333.057-3.91.069-6.414 5.19-6.414 5.19s-10.69 21.7-14.017 28.423c-.389.79-.675 1.361-.823 1.624-1.395 2.515-2.721 3.441-3.442 3.441-.72 0-1.99-2.778-1.99-2.778s-8.277-17.79-12.461-26.73c-.423-.892-1.658-.95-2.173-.103l-6.128 10.175-15.091 25.096c-.012.057-.035.114-.046.171a4.081 4.081 0 0 0-.32 1.567v11.524h.011l-.068 11.422h3.681c1.326.034 5.762.114 9.924-.011a3.914 3.914 0 0 0 1.155-.218c3.087-1.086 2.56-6.014 2.56-6.014s.058-11.787.138-14.577c.069-2.39.137-4.642 1.326-5.03 1.19-.4 1.59.068 2.653 2.515.56 1.303 2.07 4.573 3.635 8.209 1.372 3.201 2.79 6.688 3.659 9.41 1.852 5.83 4.242 5.43 4.242 5.43s5.636.4 9.81.4c1.143 0 2.023-.24 2.709-.594 1.806-.915 2.195-2.584 2.195-2.584s7.02-16.693 7.42-17.882c.4-1.189 1.852-4.973 3.442-4.767 1.589.194 1.189 2.584 1.189 4.367 0 .732-.023 2.95-.046 5.614-.034 3.876-.08 8.7-.08 11.216 0 4.242 2.252 4.367 3.441 4.367h9.936c.834 0 1.475-.194 1.955-.503 1.898-1.2 1.486-4.127 1.486-4.127s.389-52.787-.011-58.56z"/><path id="c" d="M543.149 361.498l-15.4-30.07c-.344-.685-1.384-.445-1.384.332v50.57a4.216 4.216 0 0 0 4.219 4.218h13.068l.034-.206h-.012l.023-19.836h.035v-2.904c0-.744-.206-1.475-.583-2.104z"/><path id="d" d="M683.159 362.95c0 4.299-.95 7.706-2.813 10.141-1.783 2.321-4.161 3.453-7.26 3.453-3.098 0-5.476-1.132-7.26-3.453-1.863-2.435-2.812-5.842-2.812-10.141s.949-7.706 2.812-10.141c1.784-2.321 4.162-3.453 7.26-3.453 3.099 0 5.465 1.132 7.26 3.453 1.875 2.435 2.813 5.842 2.813 10.14zm5.282-17.035a19.518 19.518 0 0 0-6.803-4.871c-2.606-1.132-5.476-1.704-8.54-1.704-3.064 0-5.934.572-8.54 1.704a19.56 19.56 0 0 0-6.804 4.87c-1.886 2.081-3.36 4.608-4.39 7.512-1.029 2.87-1.543 6.071-1.543 9.512 0 3.499.514 6.712 1.543 9.559 1.03 2.87 2.515 5.385 4.39 7.465a19.667 19.667 0 0 0 6.803 4.871c2.607 1.132 5.488 1.704 8.54 1.704 3.053 0 5.935-.572 8.541-1.704a19.666 19.666 0 0 0 6.803-4.87c1.875-2.081 3.361-4.597 4.39-7.466 1.03-2.847 1.544-6.071 1.544-9.559 0-3.44-.515-6.642-1.544-9.512-1.029-2.892-2.515-5.42-4.39-7.511z"/><path id="e" d="M738.632 345.492c-1.486-1.91-3.475-3.408-5.933-4.46-2.401-1.017-5.408-1.543-8.93-1.543-3.761 0-7.157.252-10.072.743-2.858.48-5.19.95-6.94 1.395a1.724 1.724 0 0 0-1.304 1.67v40.484c0 .95.766 1.715 1.715 1.715h7.455c.949 0 1.715-.766 1.715-1.715v-33.75a39.61 39.61 0 0 1 1.863-.252 46.61 46.61 0 0 1 2.379-.194c2.698-.16 5.11-.046 6.745.571 1.03.389 1.818.995 2.424 1.841.652.915 1.132 2.172 1.43 3.727.33 1.704.49 3.807.49 6.254v21.815c0 .948.767 1.715 1.716 1.715h7.454c.95 0 1.715-.767 1.715-1.715v-23.416c0-2.938-.286-5.682-.846-8.163-.583-2.584-1.612-4.847-3.075-6.722z"/><path id="f" d="M773.8 349.104c2.516 0 4.425.858 5.832 2.607 1.2 1.498 1.886 3.304 2.092 5.51H764.85c.148-.65.343-1.302.583-1.943a10.42 10.42 0 0 1 1.818-3.167c.754-.891 1.703-1.623 2.8-2.183 1.064-.55 2.322-.824 3.75-.824zm.08-9.764a20.82 20.82 0 0 0-7.682 1.487c-2.515.994-4.768 2.504-6.7 4.493-1.92 1.978-3.464 4.47-4.619 7.432-1.143 2.938-1.715 6.402-1.715 10.29 0 3.315.446 6.413 1.326 9.215.892 2.87 2.298 5.385 4.162 7.488 1.875 2.115 4.287 3.785 7.157 4.974 2.847 1.177 6.231 1.772 10.084 1.772 2.996 0 5.74-.286 8.13-.846 2.434-.572 4.126-1.12 5.178-1.68a1.736 1.736 0 0 0 .892-1.807l-1.04-6.254a1.745 1.745 0 0 0-.892-1.235 1.72 1.72 0 0 0-1.532-.034c-.812.377-2.07.789-3.739 1.212-1.635.411-3.727.628-6.185.628-4.15 0-7.192-.96-9.032-2.846-1.578-1.624-2.607-3.945-3.076-6.94h26.617c.868 0 1.6-.652 1.703-1.51.057-.503.092-1.04.092-1.612v-1.246c0-7.546-1.647-13.308-4.905-17.115-3.327-3.899-8.118-5.866-14.223-5.866z"/><path id="g" d="M839.267 340.804a1.723 1.723 0 0 0-1.349-.663h-7.695c-.8 0-1.497.56-1.68 1.338a451.997 451.997 0 0 1-4.23 16.932c-.31 1.143-.64 2.31-.984 3.464-.137.423-.274.858-.411 1.28-.32 1.064-.686 2.287-1.064 3.534a202.9 202.9 0 0 1-1.383 4.23 134.056 134.056 0 0 1-1.886-4.528 190.176 190.176 0 0 1-3.259-8.746c-.995-2.893-1.92-5.75-2.744-8.506a170.916 170.916 0 0 1-2.104-7.706 1.714 1.714 0 0 0-1.669-1.304h-8.014c-.538 0-1.03.252-1.361.664-.32.423-.434.971-.309 1.486a179.45 179.45 0 0 0 7.329 22.066 231.575 231.575 0 0 0 7.191 16.03l1.292 2.514c.206.412.229.892.046 1.315-2.195 5.134-6.803 15.446-9.044 20.214-.343.72-.137 1.59.492 2.08l7.843.092c1.932-.034 2.664-.423 3.43-2.092 3.339-7.386 6.357-14.714 8.987-21.86.045-.126.091-.24.137-.366a240.932 240.932 0 0 0 6.31-17.253c2.356-7.237 4.517-14.897 6.45-22.774.125-.48 0-1.018-.32-1.441z"/></defs><use fill="#ffd31f" xlink:href="#a" transform="translate(-526 -317)"/><use fill="#ffd31f" xlink:href="#b" transform="translate(-526 -317)"/><use fill="#ffd31f" xlink:href="#c" transform="translate(-526 -317)"/><use fill="#ffd31f" xlink:href="#d" transform="translate(-526 -317)"/><use fill="#ffd31f" xlink:href="#e" transform="translate(-526 -317)"/><g><use fill="#ffd31f" xlink:href="#f" transform="translate(-526 -317)"/></g><g><use fill="#ffd31f" xlink:href="#g" transform="translate(-526 -317)"/></g></svg>